<?xml version="1.0" encoding="utf-8"?><svg viewBox="0 0 117 84" xmlns="http://www.w3.org/2000/svg" xmlns:xlink="http://www.w3.org/1999/xlink"><style>:root>svg{display:none}:root>svg:target{display:block}</style><svg fill="none" viewBox="0 0 117 65" id="footer--logo" xmlns="http://www.w3.org/2000/svg"><g opacity=".3" fill-rule="evenodd" clip-rule="evenodd" fill="#fff"><path d="M99.703 3.88c2.479.458 2.916 1.562 1.459 3.187-3.864 4.553-11.224 5.528-22.012 2.796-15.743-5.462-28.497-2.405-38.045 9.234-11.734 16.257-21.281 22.76-28.643 19.51-4.738-1.887-6.56-4.619-5.686-8.194.948-3.448.22-5.527-2.04-5.918-2.331-.52-3.936.325-4.664 2.47-.584 7.153 2.404 11.77 8.818 13.916 4.3 1.366 9.33.65 15.015-2.081 5.612-2.73 11.298-7.673 16.91-14.76 4.226-5.007 8.89-8.325 13.919-9.95 5.976-1.755 11.443-1.234 16.471 1.432 3.281 2.016 6.707 5.202 10.279 9.428 2.843 2.34 6.486 2.927 11.004 1.627.365-.132.803-.326 1.167-.392l1.238 3.187c.074 1.43-.655 2.275-2.114 2.47-1.528.196-3.935.455-7.14.78-1.679.587-1.97 1.627-.948 3.123 1.312 1.884 3.935 1.95 7.871 0 3.936-1.82 5.393-5.657 4.372-11.38 1.969-1.431 3.352-3.382 4.081-5.788 1.167-4.032 5.102-7.348 11.881-9.949 6.705-2.536 3.281-4.097-10.35-4.551C99.996.306 97.956-.865 96.57.63c-1.457 1.43-.365 2.537 3.133 3.25Z"/><path d="M55.536 17.02c-4.3 1.366-7.797 4.095-10.495 7.997-2.843 5.332-.51 8.91 6.997 10.794-2.697 4.877-7.288 9.884-13.702 14.957-3.498 6.047-4.593 10.664-3.281 13.72 1.095.91 2.479.195 4.228-2.277 1.676-2.404 2.48-6.241 2.115-11.639 6.85-2.016 14.502-5.331 23.031-10.143 7.433-4.162 10.785-8.975 10.057-14.566-.51-3.316-2.114-5.918-4.957-7.673-4.3-2.277-8.89-2.666-13.993-1.17Z"/></g></svg><svg fill="none" viewBox="0 0 99 84" id="header--logo" xmlns="http://www.w3.org/2000/svg"><path d="M82.151 71.379c0 4.009 1.535 7.25 5.33 7.25 3.796 0 5.332-3.241 5.332-7.25s-1.536-7.25-5.331-7.25c-3.796 0-5.331 3.241-5.331 7.25Zm-5.97 0c0-6.483 4.008-11.728 11.3-11.728 7.294 0 11.302 5.245 11.302 11.728 0 6.482-4.008 11.728-11.301 11.728S76.18 77.86 76.18 71.379ZM74.701 60.29v22.176h-5.544V66.9h-.213L64.04 82.466h-5.545L53.591 66.9h-.213v15.566h-5.544V60.29h8.956l4.477 15.353 4.478-15.353h8.956ZM24.6 71.379c0-6.483 3.795-11.728 11.088-11.728 7.292 0 10.661 5.245 10.661 11.728 0 .511-.042 1.28-.042 1.28H30.613c.256 3.41 1.706 5.97 5.288 5.97 3.625 0 4.265-3.412 4.265-3.412h5.97s-1.28 7.89-10.448 7.89c-7.463 0-11.088-5.246-11.088-11.728Zm11.088-7.25c-2.943 0-4.393 1.962-4.905 4.691h9.425c-.383-2.73-1.578-4.691-4.52-4.691Z" fill="#fff"/><path d="M4.749 82.466V60.29h5.97v8.956l7.89-8.956h7.036l-8.358 8.657 8.785 13.52h-7.293l-5.629-9.255-2.43 2.516v6.738H4.748Z" fill="#fff"/><path fill-rule="evenodd" clip-rule="evenodd" d="M80.028 3.115c1.99.367 2.341 1.253 1.171 2.558-3.101 3.654-9.008 4.437-17.668 2.244-12.636-4.384-22.874-1.93-30.537 7.412-9.419 13.049-17.082 18.268-22.991 15.66C6.2 29.473 4.738 27.28 5.439 24.41c.76-2.767.176-4.436-1.638-4.75-1.87-.417-3.159.26-3.744 1.983-.468 5.741 1.93 9.448 7.079 11.17 3.452 1.096 7.488.522 12.052-1.67 4.504-2.192 9.068-6.16 13.572-11.848 3.393-4.019 7.137-6.682 11.173-7.986 4.797-1.409 9.185-.991 13.221 1.149 2.633 1.618 5.383 4.176 8.25 7.567 2.282 1.879 5.206 2.35 8.833 1.306.293-.106.645-.26.937-.314l.994 2.558c.059 1.148-.526 1.826-1.698 1.983-1.226.157-3.158.365-5.731.626-1.347.47-1.58 1.306-.76 2.506 1.052 1.513 3.158 1.566 6.318 0 3.159-1.461 4.328-4.54 3.508-9.134 1.581-1.149 2.691-2.714 3.276-4.646.937-3.236 4.096-5.898 9.537-7.985 5.381-2.036 2.633-3.289-8.308-3.654C80.263.245 78.625-.694 77.513.506c-1.17 1.148-.292 2.036 2.515 2.609Z" fill="#FFC614"/><path fill-rule="evenodd" clip-rule="evenodd" d="M44.577 13.661c-3.451 1.097-6.259 3.287-8.424 6.42-2.282 4.28-.41 7.15 5.616 8.663-2.165 3.915-5.85 7.934-10.998 12.006-2.808 4.854-3.686 8.56-2.634 11.013.88.73 1.99.157 3.395-1.828 1.345-1.93 1.99-5.01 1.697-9.342 5.498-1.618 11.64-4.28 18.486-8.142 5.967-3.34 8.657-7.204 8.073-11.691-.41-2.662-1.697-4.75-3.98-6.16-3.45-1.827-7.136-2.14-11.23-.939Z" fill="#FFC614"/></svg></svg>