<svg width="117" height="65" fill="none" xmlns="http://www.w3.org/2000/svg"><g opacity=".3" fill-rule="evenodd" clip-rule="evenodd" fill="#fff"><path d="M99.703 3.88c2.479.458 2.916 1.562 1.459 3.187-3.864 4.553-11.224 5.528-22.012 2.796-15.743-5.462-28.497-2.405-38.045 9.234-11.734 16.257-21.281 22.76-28.643 19.51-4.738-1.887-6.56-4.619-5.686-8.194.948-3.448.22-5.527-2.04-5.918-2.331-.52-3.936.325-4.664 2.47-.584 7.153 2.404 11.77 8.818 13.916 4.3 1.366 9.33.65 15.015-2.081 5.612-2.73 11.298-7.673 16.91-14.76 4.226-5.007 8.89-8.325 13.919-9.95 5.976-1.755 11.443-1.234 16.471 1.432 3.281 2.016 6.707 5.202 10.279 9.428 2.843 2.34 6.486 2.927 11.004 1.627.365-.132.803-.326 1.167-.392l1.238 3.187c.074 1.43-.655 2.275-2.114 2.47-1.528.196-3.935.455-7.14.78-1.679.587-1.97 1.627-.948 3.123 1.312 1.884 3.935 1.95 7.871 0 3.936-1.82 5.393-5.657 4.372-11.38 1.969-1.431 3.352-3.382 4.081-5.788 1.167-4.032 5.102-7.348 11.881-9.949 6.705-2.536 3.281-4.097-10.35-4.551C99.996.306 97.956-.865 96.57.63c-1.457 1.43-.365 2.537 3.133 3.25z"/><path d="M55.536 17.02c-4.3 1.366-7.797 4.095-10.495 7.997-2.843 5.332-.51 8.91 6.997 10.794-2.697 4.877-7.288 9.884-13.702 14.957-3.498 6.047-4.593 10.664-3.281 13.72 1.095.91 2.479.195 4.228-2.277 1.676-2.404 2.48-6.241 2.115-11.639 6.85-2.016 14.502-5.331 23.031-10.143 7.433-4.162 10.785-8.975 10.057-14.566-.51-3.316-2.114-5.918-4.957-7.673-4.3-2.277-8.89-2.666-13.993-1.17z"/></g></svg>