<svg width="99" height="84" fill="none" xmlns="http://www.w3.org/2000/svg"><path d="M82.151 71.379c0 4.009 1.535 7.25 5.33 7.25 3.796 0 5.332-3.241 5.332-7.25s-1.536-7.25-5.331-7.25c-3.796 0-5.331 3.241-5.331 7.25zm-5.97 0c0-6.483 4.008-11.728 11.3-11.728 7.294 0 11.302 5.245 11.302 11.728 0 6.482-4.008 11.728-11.301 11.728S76.18 77.86 76.18 71.379zm-1.48-11.089v22.176h-5.544V66.9h-.213L64.04 82.466h-5.545L53.591 66.9h-.213v15.566h-5.544V60.29h8.956l4.477 15.353 4.478-15.353h8.956zM24.6 71.379c0-6.483 3.795-11.728 11.088-11.728 7.292 0 10.661 5.245 10.661 11.728 0 .511-.042 1.28-.042 1.28H30.613c.256 3.41 1.706 5.97 5.288 5.97 3.625 0 4.265-3.412 4.265-3.412h5.97s-1.28 7.89-10.448 7.89c-7.463 0-11.088-5.246-11.088-11.728zm11.088-7.25c-2.943 0-4.393 1.962-4.905 4.691h9.425c-.383-2.73-1.578-4.691-4.52-4.691z" fill="#fff"/><path d="M4.749 82.466V60.29h5.97v8.956l7.89-8.956h7.036l-8.358 8.657 8.785 13.52h-7.293l-5.629-9.255-2.43 2.516v6.738H4.748z" fill="#fff"/><path fill-rule="evenodd" clip-rule="evenodd" d="M80.028 3.115c1.99.367 2.341 1.253 1.171 2.558-3.101 3.654-9.008 4.437-17.668 2.244-12.636-4.384-22.874-1.93-30.537 7.412-9.419 13.049-17.082 18.268-22.991 15.66C6.2 29.473 4.738 27.28 5.439 24.41c.76-2.767.176-4.436-1.638-4.75-1.87-.417-3.159.26-3.744 1.983-.468 5.741 1.93 9.448 7.079 11.17 3.452 1.096 7.488.522 12.052-1.67 4.504-2.192 9.068-6.16 13.572-11.848 3.393-4.019 7.137-6.682 11.173-7.986 4.797-1.409 9.185-.991 13.221 1.149 2.633 1.618 5.383 4.176 8.25 7.567 2.282 1.879 5.206 2.35 8.833 1.306.293-.106.645-.26.937-.314l.994 2.558c.059 1.148-.526 1.826-1.698 1.983-1.226.157-3.158.365-5.731.626-1.347.47-1.58 1.306-.76 2.506 1.052 1.513 3.158 1.566 6.318 0 3.159-1.461 4.328-4.54 3.508-9.134 1.581-1.149 2.691-2.714 3.276-4.646.937-3.236 4.096-5.898 9.537-7.985 5.381-2.036 2.633-3.289-8.308-3.654C80.263.245 78.625-.694 77.513.506c-1.17 1.148-.292 2.036 2.515 2.609z" fill="#FFC614"/><path fill-rule="evenodd" clip-rule="evenodd" d="M44.577 13.661c-3.451 1.097-6.259 3.287-8.424 6.42-2.282 4.28-.41 7.15 5.616 8.663-2.165 3.915-5.85 7.934-10.998 12.006-2.808 4.854-3.686 8.56-2.634 11.013.88.73 1.99.157 3.395-1.828 1.345-1.93 1.99-5.01 1.697-9.342 5.498-1.618 11.64-4.28 18.486-8.142 5.967-3.34 8.657-7.204 8.073-11.691-.41-2.662-1.697-4.75-3.98-6.16-3.45-1.827-7.136-2.14-11.23-.939z" fill="#FFC614"/></svg>