<svg width="117" height="65" viewBox="0 0 117 65" fill="none" xmlns="http://www.w3.org/2000/svg">
<g opacity="0.3">
<path fill-rule="evenodd" clip-rule="evenodd" d="M99.7029 3.88084C102.182 4.33776 102.619 5.44205 101.162 7.06723C97.2981 11.6195 89.9385 12.5949 79.1503 9.86307C63.4075 4.40125 50.6527 7.45825 41.105 19.0971C29.3713 35.3541 19.8236 41.8563 12.4618 38.6064C7.72383 36.7201 5.90226 33.9882 6.77612 30.4127C7.72383 26.9652 6.99552 24.8855 4.73568 24.4949C2.40468 23.9745 0.79983 24.8196 0.0715269 26.9652C-0.511762 34.1181 2.47638 38.7358 8.89041 40.8814C13.1907 42.2473 18.2193 41.5316 23.905 38.7998C29.5168 36.0698 35.2026 31.127 40.8144 24.04C45.0409 19.0331 49.705 15.7154 54.7336 14.0903C60.7099 12.3352 66.1767 12.8556 71.2053 15.5216C74.4862 17.5378 77.9121 20.7242 81.4835 24.9495C84.3266 27.2903 87.9697 27.8766 92.4883 26.5766C92.8528 26.4448 93.2911 26.2514 93.6549 26.1855L94.8932 29.3719C94.9671 30.8018 94.2382 31.6474 92.7789 31.8426C91.2506 32.0379 88.8436 32.2971 85.6382 32.6223C83.96 33.2086 83.6695 34.2494 84.691 35.7447C86.0026 37.6291 88.6264 37.695 92.5622 35.7447C96.4981 33.9242 97.9552 30.0881 96.9336 24.3651C98.9029 22.9337 100.286 20.9834 101.015 18.5767C102.182 14.5448 106.117 11.229 112.896 8.62844C119.601 6.09231 116.177 4.53111 102.546 4.07659C99.9957 0.305839 97.9552 -0.864827 96.5698 0.630489C95.1126 2.06039 96.2053 3.16709 99.7029 3.88084Z" fill="white"/>
<path fill-rule="evenodd" clip-rule="evenodd" d="M55.5363 17.0195C51.236 18.3855 47.7385 21.1149 45.0409 25.0175C42.1978 30.3495 44.5309 33.9264 52.0382 35.8108C49.3406 40.6883 44.7503 45.6951 38.3358 50.7678C34.8382 56.8154 33.7433 61.4317 35.0549 64.4883C36.1503 65.3978 37.5336 64.6835 39.2835 62.2114C40.9595 59.8066 41.7622 55.9699 41.3978 50.5725C48.2479 48.5563 55.9002 45.2406 64.4291 40.429C71.8625 36.2672 75.2145 31.4542 74.4862 25.863C73.9768 22.5468 72.3719 19.9448 69.5293 18.1897C65.2291 15.9128 60.6382 15.5237 55.5363 17.0195Z" fill="white"/>
</g>
</svg>
