<svg width="99" height="84" viewBox="0 0 99 84" fill="none" xmlns="http://www.w3.org/2000/svg">
<path d="M82.151 71.3788C82.151 75.3876 83.6863 78.6288 87.4819 78.6288C91.2774 78.6288 92.8127 75.3876 92.8127 71.3788C92.8127 67.37 91.2774 64.1288 87.4819 64.1288C83.6863 64.1288 82.151 67.37 82.151 71.3788ZM76.1804 71.3788C76.1804 64.8964 80.1892 59.6509 87.4819 59.6509C94.7745 59.6509 98.7833 64.8964 98.7833 71.3788C98.7833 77.8611 94.7745 83.1067 87.4819 83.1067C80.1892 83.1067 76.1804 77.8611 76.1804 71.3788Z" fill="white"/>
<path d="M74.7013 60.29V82.4664H69.1572V66.9003H68.944L64.0396 82.4664H58.4955L53.5911 66.9003H53.3778V82.4664H47.8337V60.29H56.7896L61.2675 75.6429L65.7454 60.29H74.7013Z" fill="white"/>
<path d="M24.5996 71.3788C24.5996 64.8964 28.3952 59.6509 35.6878 59.6509C42.9804 59.6509 46.3495 64.8964 46.3495 71.3788C46.3495 71.8905 46.3069 72.6582 46.3069 72.6582H30.6128C30.8687 76.0699 32.3187 78.6288 35.901 78.6288C39.526 78.6288 40.1657 75.217 40.1657 75.217H46.1363C46.1363 75.217 44.8569 83.1067 35.6878 83.1067C28.2246 83.1067 24.5996 77.8611 24.5996 71.3788ZM35.6878 64.1288C32.7452 64.1288 31.2952 66.0906 30.7834 68.82H40.2084C39.8246 66.0906 38.6304 64.1288 35.6878 64.1288Z" fill="white"/>
<path d="M4.74854 82.4664V60.29H10.7191V69.2459L18.6088 60.29H25.6455L17.2867 68.9474L26.072 82.4664H18.7794L13.15 73.2121L10.7191 75.7282V82.4664H4.74854Z" fill="white"/>
<path fill-rule="evenodd" clip-rule="evenodd" d="M80.0282 3.11502C82.0178 3.48177 82.3691 4.36815 81.1995 5.67263C78.0979 9.32662 72.1906 10.1095 63.5313 7.91675C50.895 3.53273 40.6572 5.98649 32.9936 15.3286C23.5753 28.3776 15.9117 33.5966 10.0027 30.9881C6.19966 29.474 4.73755 27.2812 5.43896 24.4113C6.19966 21.644 5.61507 19.9747 3.80117 19.6613C1.93016 19.2436 0.641996 19.9219 0.0574122 21.644C-0.410774 27.3854 1.98771 31.0919 7.13603 32.8141C10.5877 33.9105 14.624 33.3361 19.1877 31.1433C23.6922 28.952 28.2559 24.9846 32.7604 19.2961C36.1528 15.2772 39.8965 12.6143 43.9328 11.3098C48.7298 9.90107 53.1178 10.3188 57.1541 12.4587C59.7875 14.077 62.5374 16.6346 65.4041 20.0261C67.6861 21.905 70.6104 22.3756 74.2373 21.3321C74.5298 21.2263 74.8816 21.0711 75.1737 21.0182L76.1676 23.5759C76.2269 24.7236 75.6419 25.4023 74.4705 25.559C73.2438 25.7157 71.3118 25.9238 68.7389 26.1848C67.3919 26.6554 67.1587 27.4908 67.9787 28.6911C69.0314 30.2036 71.1374 30.2565 74.2966 28.6911C77.4558 27.2298 78.6254 24.1507 77.8054 19.557C79.386 18.4081 80.4964 16.8427 81.0814 14.9109C82.0178 11.6746 85.1769 9.01315 90.6178 6.92575C95.9993 4.8901 93.2512 3.63697 82.3103 3.27215C80.2631 0.245486 78.6254 -0.694168 77.5133 0.506072C76.3437 1.65381 77.2208 2.54212 80.0282 3.11502Z" fill="#FFC614"/>
<path fill-rule="evenodd" clip-rule="evenodd" d="M44.5772 13.6612C41.1255 14.7576 38.3181 16.9485 36.1529 20.0809C33.8708 24.3607 35.7435 27.2318 41.7694 28.7443C39.6041 32.6593 35.9196 36.6781 30.7709 40.7498C27.9635 45.6041 27.0847 49.3094 28.1374 51.7628C29.0167 52.4928 30.127 51.9195 31.5316 49.9352C32.8769 48.0049 33.5211 44.9254 33.2286 40.5931C38.727 38.9747 44.8693 36.3133 51.7151 32.4512C57.6817 29.1107 60.3722 25.2475 59.7876 20.7596C59.3787 18.0977 58.0906 16.0092 55.8089 14.6005C52.3572 12.7729 48.6723 12.4606 44.5772 13.6612Z" fill="#FFC614"/>
</svg>
